{"title":"The Constant Gardener 2005 BRRIP 720p [Dual Audio Eng-Hindi]-GOP","uid":9192980,"size":688982523,"categoryP":"video","categoryS":"hd___movies","magnet":"?xt=urn:btih:8a568d240348d5a5d57fda014e88e8fce33623cb&amp;dn=The+Constant+Gardener+2005+BRRIP+720p+%5BDual+Audio+Eng-Hindi%5D-GOP&amp;tr=udp%3A%2F%2Ftracker.openbittorrent.com%3A80&amp;tr=udp%3A%2F%2Fopen.demonii.com%3A1337&amp;tr=udp%3A%2F%2Ftracker.coppersurfer.tk%3A6969&amp;tr=udp%3A%2F%2Fexodus.desync.com%3A6969","seeders":3,"leechers":1,"uploader":"jatt13","files":1,"time":1384390428,"description":"[img]http://imageshack.us/a/img577/6841/j1g9.jpg[/img]\n[img]http://imageshack.us/a/img22/2628/khcc.jpg[/img]\n[url]http://www.imdb.com/title/tt0387131/[/url]\nVideo\nID                             : 1\nFormat                         : AVC\nFormat/Info                    : Advanced Video Codec\nFormat profile                 : &lt;a class=&quot;__cf_email__&quot; href=&quot;/cdn-cgi/l/email-protection&quot; data-cfemail=&quot;145c7d737c5458203a24&quot;&gt;[email&amp;#160;protected]&lt;/a&gt;&lt;script cf-hash='f9e31' type=&quot;text/javascript&quot;&gt;\n/* &lt;![CDATA[ */!function(){try{var t=&quot;currentScript&quot;in document?document.currentScript:function(){for(var t=document.getElementsByTagName(&quot;script&quot;),e=t.length;e--;)if(t[e].getAttribute(&quot;cf-hash&quot;))return t[e]}();if(t&amp;&amp;t.previousSibling){var e,r,n,i,c=t.previousSibling,a=c.getAttribute(&quot;data-cfemail&quot;);if(a){for(e=&quot;&quot;,r=parseInt(a.substr(0,2),16),n=2;a.length-n;n+=2)i=parseInt(a.substr(n,2),16)^r,e+=String.fromCharCode(i);e=document.createTextNode(e),c.parentNode.replaceChild(e,c)}}}catch(u){}}();/* ]]&gt; */&lt;/script&gt;\nFormat settings, CABAC         : Yes\nFormat settings, ReFrames      : 8 frames\nCodec ID                       : V_MPEG4/ISO/AVC\nDuration                       : 1h 53mn\nBit rate                       : 594 Kbps\nWidth                          : 1 280 pixels\nHeight                         : 720 pixels\nDisplay aspect ratio           : 16:9\nFrame rate mode                : Constant\nFrame rate                     : 25.000 fps\nOriginal frame rate            : 23.976 fps\nColor space                    : YUV\nChroma subsampling             : 4:2:0\nBit depth                      : 8 bits\nScan type                      : Progressive\nBits/(Pixel*Frame)             : 0.026\nStream size                    : 488 MiB (74%)\nTitle                          : GOPI SAHI\nWriting library                : x264 core 68 r1183M f21daff\nDefault                        : Yes\nForced                         : No\n\nAudio #1\nID                             : 2\nFormat                         : MPEG Audio\nFormat version                 : Version 1\nFormat profile                 : Layer 3\nCodec ID                       : A_MPEG/L3\nCodec ID/Hint                  : MP3\nDuration                       : 1h 53mn\nBit rate mode                  : Constant\nBit rate                       : 128 Kbps\nChannel count                  : 2 channels\nSampling rate                  : 48.0 KHz\nCompression mode               : Lossy\nDelay relative to video        : 4ms\nStream size                    : 104 MiB (16%)\nTitle                          : GOPI SAHI\nWriting library                : LAMELAME_MAJOR_VERSI\nLanguage                       : Hindi\nDefault                        : Yes\nForced                         : No\n\nAudio #2\nID                             : 3\nFormat                         : AC-3\nFormat/Info                    : Audio Coding 3\nMode extension                 : CM (complete main)\nFormat settings, Endianness    : Big\nCodec ID                       : A_AC3\nDuration                       : 1h 53mn\nBit rate mode                  : Constant\nBit rate                       : 64.0 Kbps\nChannel count                  : 2 channels\nChannel positions              : Front: L R\nSampling rate                  : 48.0 KHz\nBit depth                      : 16 bits\nCompression mode               : Lossy\nStream size                    : 51.9 MiB (8%)\nTitle                          : GOPI SAHI\nLanguage                       : English\nDefault                        : No\nForced                         : No\n[img]http://imageshack.us/a/img9/411/5edx.jpg[/img]\n[img]http://imageshack.us/a/img837/2097/podv.png[/img]\n[img]http://imageshack.us/a/img826/323/m9gw.png[/img]\n[img]http://imageshack.us/a/img32/3918/j62i.png[/img]\n[img]http://imageshack.us/a/img17/6880/ggwk.png[/img]\n[img]http://imageshack.us/a/img401/4741/efbe.png[/img]\n[img]http://imageshack.us/a/img69/1066/kg8l.png[/img]\n[img]http://imageshack.us/a/img198/38/yws9.png[/img]\n[img]http://imageshack.us/a/img59/8704/tsae.png[/img]\n[img]http://imageshack.us/a/img23/3447/cyk3.png[/img]\n[img]http://imageshack.us/a/img855/9352/mf58.png[/img]\n[img]http://imageshack.us/a/img33/992/p9r4.png[/img]","torrent":{"xt":"urn:btih:8a568d240348d5a5d57fda014e88e8fce33623cb","amp;dn":"The+Constant+Gardener+2005+BRRIP+720p+%5BDual+Audio+Eng-Hindi%5D-GOP","amp;tr":["udp%3A%2F%2Ftracker.openbittorrent.com%3A80","udp%3A%2F%2Fopen.demonii.com%3A1337","udp%3A%2F%2Ftracker.coppersurfer.tk%3A6969","udp%3A%2F%2Fexodus.desync.com%3A6969"],"infoHash":"8a568d240348d5a5d57fda014e88e8fce33623cb","infoHashBuffer":{"type":"Buffer","data":[138,86,141,36,3,72,213,165,213,127,218,1,78,136,232,252,227,54,35,203]},"announce":[],"urlList":[]}}